HIERARCHY
ROOT root
{
	OFFSET 0.000000 0.000000 0.000000
	CHANNELS 6 Xposition Yposition Zposition Zrotation Yrotation Xrotation
	JOINT lhip
	{
		OFFSET 0.058581 -0.082280 -0.017664
		CHANNELS 3 Zrotation Yrotation Xrotation
		JOINT lknee
		{
			OFFSET 0.043451 -0.386469 0.008037
			CHANNELS 3 Zrotation Yrotation Xrotation
			JOINT lankle
			{
				OFFSET -0.014790 -0.426874 -0.037428
				CHANNELS 3 Zrotation Yrotation Xrotation
				JOINT ltoe
				{
					OFFSET 0.041054 -0.060286 0.122042
					CHANNELS 3 Zrotation Yrotation Xrotation
					End Site
					{
						OFFSET 0.000000 0.000000 0.000000
					}
				}
			}
		}
	}
	JOINT rhip
	{
		OFFSET -0.060310 -0.090513 -0.013543
		CHANNELS 3 Zrotation Yrotation Xrotation
		JOINT rknee
		{
			OFFSET -0.043257 -0.383688 -0.004843
			CHANNELS 3 Zrotation Yrotation Xrotation
			JOINT rankle
			{
				OFFSET 0.019056 -0.420046 -0.034562
				CHANNELS 3 Zrotation Yrotation Xrotation
				JOINT rtoe
				{
					OFFSET -0.034840 -0.062106 0.130323
					CHANNELS 3 Zrotation Yrotation Xrotation
					End Site
					{
						OFFSET 0.000000 0.000000 0.000000
					}
				}
			}
		}
	}
	JOINT lowerback
	{
		OFFSET 0.004439 0.124404 -0.038385
		CHANNELS 3 Zrotation Yrotation Xrotation
		JOINT upperback
		{
			OFFSET 0.004488 0.137956 0.026820
			CHANNELS 3 Zrotation Yrotation Xrotation
			JOINT chest
			{
				OFFSET -0.002265 0.056032 0.002855
				CHANNELS 3 Zrotation Yrotation Xrotation
				JOINT lowerneck
				{
					OFFSET -0.013390 0.211636 -0.033468
					CHANNELS 3 Zrotation Yrotation Xrotation
					JOINT upperneck
					{
						OFFSET 0.010113 0.088937 0.050410
						CHANNELS 3 Zrotation Yrotation Xrotation
						End Site
						{
							OFFSET 0.000000 0.000000 0.000000
						}
					}
				}
				JOINT lclavicle
				{
					OFFSET 0.071702 0.114000 -0.018898
					CHANNELS 3 Zrotation Yrotation Xrotation
					JOINT lshoulder
					{
						OFFSET 0.122921 0.045205 -0.019046
						CHANNELS 3 Zrotation Yrotation Xrotation
						JOINT lelbow
						{
							OFFSET 0.255332 -0.015649 -0.022946
							CHANNELS 3 Zrotation Yrotation Xrotation
							JOINT lwrist
							{
								OFFSET 0.265709 0.012698 -0.007375
								CHANNELS 3 Zrotation Yrotation Xrotation
								End Site
								{
									OFFSET 0.000000 0.000000 0.000000
								}
							}
						}
					}
				}
				JOINT rclavicle
				{
					OFFSET -0.082954 0.112472 -0.023707
					CHANNELS 3 Zrotation Yrotation Xrotation
					JOINT rshoulder
					{
						OFFSET -0.113228 0.046853 -0.008472
						CHANNELS 3 Zrotation Yrotation Xrotation
						JOINT relbow
						{
							OFFSET -0.260127 -0.014369 -0.031269
							CHANNELS 3 Zrotation Yrotation Xrotation
							JOINT rwrist
							{
								OFFSET -0.269108 0.006794 -0.006027
								CHANNELS 3 Zrotation Yrotation Xrotation
								End Site
								{
									OFFSET 0.000000 0.000000 0.000000
								}
							}
						}
					}
				}
			}
		}
	}
}
MOTION
Frames: 7
Frame Time: 0.033333
-0.622842 -0.232179 0.968488 -14.837393 -1.341231 83.063744 -4.570392 -1.827657 12.105953 -7.028270 -18.452188 26.536968 4.511479 7.957079 -17.522082 0.000000 -0.000000 0.000000 -0.603580 -6.285157 -19.968734 -0.526224 -15.433503 14.339938 2.478797 -9.822016 6.274484 0.000000 -0.000000 0.000000 5.796971 -1.130618 14.641852 -3.246455 5.620282 -1.716598 -0.575182 1.640838 4.412381 -10.963861 37.349433 3.822111 -9.591558 37.219573 7.223277 -26.674536 4.361410 -0.111588 -59.042558 -7.592090 8.702970 10.840495 -41.398393 7.861975 -1.835936 -4.597585 -8.392833 25.436376 -2.771120 7.924645 53.729906 9.255518 12.102970 -16.774247 28.497429 -12.194351 3.933490 2.605838 -10.078745 
-0.610430 -0.206632 0.969377 -14.944680 -1.495499 82.408970 -5.957324 -1.658499 12.944913 -4.857971 -18.789272 22.845549 5.974584 9.905435 -19.234720 0.000000 -0.000000 0.000000 -1.569381 -6.971046 -20.901093 -0.123250 -15.815820 14.597999 6.213277 -8.875421 8.021782 0.000000 -0.000000 0.000000 5.489282 -0.658553 15.734557 -3.762850 6.174193 -1.847522 -0.452943 2.164259 4.400186 -11.110650 37.540657 3.587419 -10.250795 37.329303 6.808414 -26.566657 4.311423 -0.402271 -59.204073 -7.299744 8.880972 10.931621 -41.356830 7.530741 -1.917101 -4.734154 -7.828572 25.481823 -2.243451 7.943987 53.005150 10.329601 11.649900 -17.218717 27.703672 -13.948310 3.720481 2.702315 -9.473279 
-0.598800 -0.180718 0.971487 -15.312637 -1.241463 81.780420 -5.698058 -1.145459 12.798916 -4.434482 -19.155933 20.687895 6.804699 10.179107 -20.343796 0.000000 -0.000000 0.000000 -2.764341 -7.107265 -21.865265 0.729139 -15.455884 16.781928 12.410922 -7.120110 4.095633 0.000000 -0.000000 0.000000 5.488492 -0.405364 16.890096 -3.911985 6.851063 -2.023757 -0.516156 2.846086 4.234002 -11.124867 38.577526 3.541702 -11.307832 37.087206 6.463544 -26.408528 4.314647 -0.786455 -59.324424 -6.669997 8.859857 10.722445 -40.550318 6.886760 -1.362304 -4.658917 -6.979612 25.297151 -1.625590 8.094536 52.273698 11.148646 10.940991 -17.280511 27.369075 -15.113092 3.323830 2.900601 -8.887261 
-0.588326 -0.155787 0.974164 -15.476745 -0.969100 80.985362 -5.094941 -0.698647 12.200097 -4.830062 -19.645439 19.841631 7.162059 9.957021 -20.373235 0.000000 -0.000000 0.000000 -4.050594 -7.037794 -22.729030 1.720370 -13.206434 22.111181 13.298893 -4.737616 -1.699190 0.000000 -0.000000 0.000000 5.508895 -0.044572 17.926274 -3.873662 7.443122 -1.848941 -0.808835 3.317867 4.128600 -10.613871 39.667549 3.501244 -11.801225 36.393159 6.717615 -26.528869 4.263241 -1.142393 -58.904942 -5.951871 8.573764 10.768729 -39.598719 6.389319 -1.171162 -4.519691 -6.902187 25.802892 -1.208091 8.031044 51.188205 11.803701 10.251776 -17.595950 27.588050 -16.026305 3.171091 2.864981 -8.547118 
-0.577789 -0.133165 0.978161 -15.685446 -0.621835 80.267005 -5.114736 -0.637880 11.453100 -4.503955 -19.684612 19.344038 7.436955 10.352970 -19.494710 0.000000 -0.000000 0.000000 -4.809979 -7.126713 -23.210698 1.660261 -12.158180 29.634133 11.427678 -4.240779 -6.588159 0.000000 -0.000000 0.000000 6.112100 -0.000368 18.448774 -3.904265 7.954183 -1.556718 -1.393065 3.939722 4.145380 -10.253991 40.264730 3.978593 -12.166314 36.017505 6.913696 -26.733817 4.357604 -1.503939 -58.120141 -5.072168 8.080835 10.552589 -38.053410 6.168881 -1.207714 -4.009560 -6.662749 26.024320 -0.669832 8.192782 50.507378 12.284124 9.764319 -17.926617 27.899955 -16.554622 3.132559 2.771539 -8.350522 
-0.567786 -0.111767 0.982563 -16.245455 -0.427957 79.970950 -5.384676 -0.589573 10.711281 -3.954669 -19.225645 18.264151 8.109000 11.103348 -18.376772 0.000000 -0.000000 0.000000 -5.410563 -6.818896 -23.588591 0.882230 -11.707179 38.521199 9.518334 -5.184084 -8.396675 0.000000 -0.000000 0.000000 6.422738 0.152140 18.325187 -3.846282 8.734476 -1.549102 -1.784187 4.553022 4.189981 -9.694640 40.284547 5.132384 -12.666348 36.048203 6.827361 -26.914545 4.698404 -1.674823 -57.356569 -4.086330 7.468636 10.450218 -35.867282 6.169030 -2.586041 -3.385723 -6.849460 25.935738 -0.330872 8.491067 50.218886 12.507417 9.809337 -18.190259 28.218779 -16.859028 3.545967 2.726369 -8.430315 
-0.559208 -0.090484 0.986594 -16.624160 -0.370159 79.723576 -5.255620 -0.438090 10.037439 -3.948937 -18.837281 17.013568 8.509195 11.124844 -17.033232 0.000000 -0.000000 0.000000 -5.903126 -6.389257 -22.981277 0.551322 -11.132389 47.305949 7.790107 -5.269435 -9.012660 0.000000 -0.000000 0.000000 6.365480 0.411897 18.139887 -3.723516 9.358254 -1.464784 -1.989349 5.121778 4.027182 -9.098776 40.207052 6.240471 -13.012550 35.909353 6.695566 -27.055223 5.164733 -1.869328 -56.717376 -3.048643 6.666376 10.838655 -33.591514 5.820639 -3.049775 -2.510665 -6.899585 25.997063 -0.215079 8.617279 50.089510 12.599879 9.878572 -18.441989 28.870941 -16.943324 3.803456 2.662826 -8.549326 
